<?xml version="1.0" standalone="no"?>
<!DOCTYPE svg PUBLIC "-//W3C//DTD SVG 20010904//EN"
 "http://www.w3.org/TR/2001/REC-SVG-20010904/DTD/svg10.dtd">
<svg version="1.0" xmlns="http://www.w3.org/2000/svg"
 width="357.000000pt" height="351.000000pt" viewBox="0 0 357.000000 351.000000"
 preserveAspectRatio="xMidYMid meet">

<g transform="translate(0.000000,351.000000) scale(0.100000,-0.100000)"
fill="#000000" stroke="none">
<path d="M396 3484 c-176 -43 -324 -189 -371 -369 -13 -52 -15 -225 -15 -1365
0 -1167 2 -1312 16 -1361 53 -180 193 -318 369 -364 52 -13 227 -15 1390 -15
1163 0 1338 2 1390 15 176 46 313 175 368 350 l22 70 0 1310 0 1310 -22 70
c-55 175 -191 303 -369 350 -85 22 -2687 21 -2778 -1z m1898 -1234 c10 -28 21
-48 25 -45 3 4 13 25 22 48 l17 42 140 3 140 3 12 -38 c19 -58 22 -59 40 -12
l18 44 132 3 c74 1 137 -1 141 -5 5 -5 19 -38 33 -76 l26 -67 -550 0 -549 0
25 67 c14 37 28 71 30 75 3 4 67 8 143 8 l137 0 18 -50z m-1766 -358 c-55
-114 -101 -208 -102 -209 -2 -2 -26 26 -55 61 l-52 64 71 149 71 148 83 -3 84
-3 -100 -207z m902 200 c0 -10 -160 -354 -170 -365 -4 -4 -28 17 -53 48 l-46
56 23 52 c13 29 41 89 62 135 l37 82 74 0 c40 0 73 -4 73 -8z m-280 -357 c90
-195 168 -355 171 -355 4 0 21 28 39 63 l32 62 -40 85 -39 86 78 169 c43 94
86 187 94 208 l15 37 163 0 163 0 169 -360 c93 -198 169 -359 171 -357 1 1 15
30 32 63 l31 62 -76 153 c-41 85 -106 218 -144 297 l-68 143 150 -3 150 -3
159 -353 c87 -195 160 -356 162 -358 3 -2 19 27 37 64 l33 68 -107 225 c-59
123 -123 254 -141 292 l-34 67 146 0 145 0 58 -122 c32 -68 106 -228 166 -357
120 -259 110 -248 160 -150 l23 45 -129 287 c-71 157 -129 288 -129 292 0 3
60 5 134 5 l133 0 97 -214 c53 -117 96 -219 96 -227 0 -7 -43 -109 -96 -226
l-97 -213 -138 0 -137 0 -38 67 -37 67 -34 -67 -33 -67 -135 0 -135 0 -33 66
-34 67 -28 -67 -28 -66 -148 0 -149 0 -30 68 -31 67 -37 -67 -36 -68 -147 0
-146 0 -30 68 -31 67 -30 -67 -31 -68 -148 0 -148 1 -165 359 c-91 198 -167
360 -170 360 -3 0 -20 -25 -38 -56 l-32 -57 137 -295 c76 -162 140 -299 141
-303 2 -5 -61 -9 -140 -9 l-144 0 -104 220 -103 221 88 182 c48 100 94 199
103 220 l15 37 146 0 146 -1 165 -354z"/>
<path d="M1561 1847 l-32 -73 102 -207 102 -207 34 60 34 61 -97 212 c-54 117
-101 216 -104 220 -4 4 -21 -25 -39 -66z"/>
</g>
</svg>
