<svg width="56" height="56" viewBox="0 0 56 56" fill="none" xmlns="http://www.w3.org/2000/svg">
<rect width="56" height="56" rx="10" fill="#F2B8EC"/>
<path d="M39.2929 40.7071C39.6834 41.0976 40.3166 41.0976 40.7071 40.7071C41.0976 40.3166 41.0976 39.6834 40.7071 39.2929L39.2929 40.7071ZM40.7071 39.2929L33.6726 32.2584L32.2584 33.6726L39.2929 40.7071L40.7071 39.2929ZM34.8621 25.931C34.8621 30.8635 30.8635 34.8621 25.931 34.8621V36.8621C31.9681 36.8621 36.8621 31.9681 36.8621 25.931H34.8621ZM25.931 34.8621C20.9986 34.8621 17 30.8635 17 25.931H15C15 31.9681 19.894 36.8621 25.931 36.8621V34.8621ZM17 25.931C17 20.9986 20.9986 17 25.931 17V15C19.894 15 15 19.894 15 25.931H17ZM25.931 17C30.8635 17 34.8621 20.9986 34.8621 25.931H36.8621C36.8621 19.894 31.9681 15 25.931 15V17Z" fill="white"/>
</svg>
