<svg width="56" height="56" viewBox="0 0 56 56" fill="none" xmlns="http://www.w3.org/2000/svg">
<rect width="56" height="56" rx="10" fill="#4DDFFD"/>
<path d="M22.6598 38.5492L21.2021 39.9963L16 34.9644L19.727 31.2915C20.4818 30.5422 21.4343 30.0195 22.4749 29.7834C23.5156 29.5473 24.6022 29.6075 25.6099 29.957L26.4288 30.2411H31.4533C31.6658 30.241 31.8762 30.2833 32.0719 30.3654C32.2676 30.4476 32.4447 30.568 32.5926 30.7194C32.7406 30.8708 32.8563 31.0502 32.9331 31.2469C33.0098 31.4436 33.046 31.6536 33.0393 31.8645C33.0152 32.2813 32.8298 32.6727 32.5219 32.9569C32.2139 33.2412 31.8072 33.3963 31.3867 33.39H28.3725C28.209 33.39 28.0521 33.4545 27.9365 33.5693C27.8208 33.6841 27.7559 33.8398 27.7559 34.0021C27.7559 34.1645 27.8208 34.3202 27.9365 34.435C28.0521 34.5498 28.209 34.6143 28.3725 34.6143H31.3966C32.1342 34.6179 32.845 34.3397 33.3818 33.8374C33.9186 33.3351 34.2402 32.6471 34.2801 31.9159C34.2801 31.9037 34.2801 31.8914 34.2801 31.8767L37.0772 28.7499C37.3613 28.4226 37.7615 28.2165 38.1947 28.1746C38.6279 28.1326 39.0607 28.258 39.4032 28.5246C39.5727 28.6639 39.7123 28.8355 39.8139 29.0293C39.9155 29.2231 39.977 29.4351 39.9947 29.6528C40.0124 29.8705 39.986 30.0896 39.917 30.297C39.848 30.5044 39.7379 30.6961 39.5931 30.8606L34.0087 37.2269C33.6401 37.6463 33.1851 37.9823 32.6745 38.2121C32.1638 38.4419 31.6095 38.5602 31.0488 38.559L22.6598 38.5492ZM34.1913 24.7072C34.1913 24.3988 34.0678 24.1029 33.8481 23.8848C33.6284 23.6667 33.3304 23.5441 33.0196 23.5441H31.293V21.8301C31.2792 21.5312 31.1498 21.2491 30.9318 21.0424C30.7139 20.8357 30.424 20.7204 30.1226 20.7204C29.8211 20.7204 29.5313 20.8357 29.3133 21.0424C29.0954 21.2491 28.966 21.5312 28.9522 21.8301V23.5441H27.2255C27.0673 23.5369 26.9093 23.5616 26.7609 23.6168C26.6126 23.6719 26.4771 23.7563 26.3626 23.8649C26.248 23.9735 26.1568 24.104 26.0946 24.2486C26.0323 24.3932 26.0002 24.5488 26.0002 24.706C26.0002 24.8632 26.0323 25.0188 26.0946 25.1634C26.1568 25.308 26.248 25.4385 26.3626 25.5471C26.4771 25.6557 26.6126 25.7401 26.7609 25.7952C26.9093 25.8504 27.0673 25.8751 27.2255 25.8679H28.9522V27.5819C28.966 27.8808 29.0954 28.1629 29.3133 28.3696C29.5313 28.5763 29.8211 28.6916 30.1226 28.6916C30.424 28.6916 30.7139 28.5763 30.9318 28.3696C31.1498 28.1629 31.2792 27.8808 31.293 27.5819V25.8679H33.0196C33.3299 25.8679 33.6276 25.7457 33.8472 25.5281C34.0669 25.3105 34.1906 25.0153 34.1913 24.7072V24.7072ZM22.9583 18.2625V19.526H21.688C21.459 19.526 21.2395 19.6163 21.0775 19.777C20.9156 19.9377 20.8247 20.1557 20.8247 20.383C20.8247 20.6103 20.9156 20.8283 21.0775 20.989C21.2395 21.1497 21.459 21.24 21.688 21.24H22.9608V22.5035C22.9608 22.7308 23.0517 22.9488 23.2136 23.1095C23.3755 23.2702 23.5951 23.3605 23.8241 23.3605C24.0531 23.3605 24.2726 23.2702 24.4345 23.1095C24.5964 22.9488 24.6874 22.7308 24.6874 22.5035V21.2351H25.9528C26.1817 21.2351 26.4013 21.1448 26.5632 20.9841C26.7251 20.8234 26.8161 20.6054 26.8161 20.3781C26.8161 20.1508 26.7251 19.9328 26.5632 19.7721C26.4013 19.6114 26.1817 19.5211 25.9528 19.5211H24.68V18.2625C24.68 18.0352 24.589 17.8172 24.4271 17.6565C24.2652 17.4958 24.0457 17.4055 23.8167 17.4055C23.5877 17.4055 23.3681 17.4958 23.2062 17.6565C23.0443 17.8172 22.9534 18.0352 22.9534 18.2625H22.9583ZM33.8484 16C33.6521 16 33.4639 16.0774 33.3251 16.2152C33.1864 16.3529 33.1084 16.5398 33.1084 16.7346V17.8218H32.0132C31.817 17.8218 31.6288 17.8992 31.49 18.0369C31.3512 18.1747 31.2733 18.3615 31.2733 18.5563C31.2733 18.7512 31.3512 18.938 31.49 19.0758C31.6288 19.2135 31.817 19.2909 32.0132 19.2909H33.1084V20.3781C33.1084 20.5729 33.1864 20.7598 33.3251 20.8975C33.4639 21.0353 33.6521 21.1127 33.8484 21.1127C34.0447 21.1127 34.2329 21.0353 34.3716 20.8975C34.5104 20.7598 34.5884 20.5729 34.5884 20.3781V19.2909H35.6836C35.7807 19.2909 35.877 19.2719 35.9667 19.235C36.0565 19.1981 36.1381 19.144 36.2068 19.0758C36.2755 19.0076 36.33 18.9266 36.3672 18.8375C36.4044 18.7483 36.4235 18.6528 36.4235 18.5563C36.4235 18.4599 36.4044 18.3644 36.3672 18.2752C36.33 18.1861 36.2755 18.1051 36.2068 18.0369C36.1381 17.9687 36.0565 17.9146 35.9667 17.8777C35.877 17.8408 35.7807 17.8218 35.6836 17.8218H34.5884V16.7346C34.5884 16.5398 34.5104 16.3529 34.3716 16.2152C34.2329 16.0774 34.0447 16 33.8484 16V16Z" fill="white"/>
</svg>
