<svg width="56" height="56" viewBox="0 0 56 56" fill="none" xmlns="http://www.w3.org/2000/svg">
<rect width="56" height="56" rx="10" fill="#2C4CC9"/>
<path d="M34.8327 40V20.7942H16V40H20.3866V38.8606C20.3866 37.4279 21.7242 36.2601 23.3439 36.2601H27.4885C29.1103 36.2601 30.457 37.4279 30.457 38.8606V40H34.8327ZM21.2 33.1339C21.2 33.2358 21.1782 33.3418 21.1342 33.4359C21.0902 33.53 21.0287 33.617 20.9474 33.6893C20.8661 33.7613 20.768 33.8158 20.6614 33.8548C20.5551 33.8937 20.4359 33.913 20.3205 33.913H18.2427C18.1277 33.913 18.0084 33.8937 17.9018 33.8548C17.7956 33.8158 17.6974 33.7613 17.6162 33.6893C17.5346 33.6173 17.4733 33.5303 17.4294 33.4359C17.3854 33.3418 17.3632 33.2361 17.3632 33.1339V31.3126C17.3632 31.2107 17.385 31.105 17.4294 31.0106C17.4733 30.9165 17.5349 30.8295 17.6162 30.7572C17.6974 30.6852 17.7956 30.6307 17.9018 30.5917C18.0084 30.5528 18.1277 30.5331 18.2427 30.5331H20.3205C20.4355 30.5331 20.5548 30.5525 20.6614 30.5917C20.7676 30.6307 20.8658 30.6852 20.9474 30.7572C21.0287 30.8295 21.0902 30.9162 21.1342 31.0106C21.1782 31.1047 21.2 31.2104 21.2 31.3126V33.1339ZM21.2 27.7479C21.2 27.8498 21.1782 27.9554 21.1342 28.0499C21.0902 28.144 21.0287 28.2309 20.9474 28.3029C20.8661 28.3752 20.768 28.4295 20.6614 28.4684C20.5551 28.5074 20.4359 28.527 20.3205 28.527H18.2427C18.1277 28.527 18.0084 28.5077 17.9018 28.4684C17.7956 28.4295 17.6974 28.3749 17.6162 28.3029C17.5346 28.2309 17.4733 28.144 17.4294 28.0499C17.3854 27.9557 17.3632 27.8498 17.3632 27.7479V25.9169C17.3632 25.815 17.385 25.719 17.4294 25.6245C17.4733 25.5304 17.5349 25.4435 17.6162 25.3712C17.6974 25.2992 17.7956 25.235 17.9018 25.1957C18.0084 25.1568 18.1277 25.1371 18.2427 25.1371H20.3205C20.4355 25.1371 20.5548 25.1564 20.6614 25.1957C20.7676 25.2347 20.8658 25.2989 20.9474 25.3712C21.0287 25.4432 21.0902 25.5301 21.1342 25.6245C21.1782 25.7187 21.2 25.8147 21.2 25.9169V27.7479ZM23.498 25.8293C23.498 25.7274 23.5198 25.6217 23.5641 25.5273C23.6081 25.4332 23.6697 25.3462 23.7509 25.2739C23.8325 25.2019 23.9303 25.1474 24.0369 25.1084C24.1432 25.0695 24.2628 25.0502 24.3778 25.0502H26.2357C26.3507 25.0502 26.47 25.0695 26.5766 25.1084C26.6828 25.1474 26.781 25.2019 26.8626 25.2739C26.9439 25.3459 27.0054 25.4329 27.0494 25.5273C27.0934 25.6214 27.1156 25.7271 27.1156 25.8293V27.4655C27.1156 27.5674 27.0938 27.6634 27.0494 27.7575C27.0054 27.8516 26.9439 27.9386 26.8626 28.0109C26.7813 28.0829 26.6832 28.1471 26.5766 28.186C26.4704 28.225 26.3507 28.2446 26.2357 28.2446H24.3778C24.2628 28.2446 24.1432 28.2253 24.0369 28.186C23.9307 28.1471 23.8325 28.0829 23.7509 28.0109C23.6697 27.9389 23.6081 27.852 23.5641 27.7575C23.5201 27.6634 23.498 27.5674 23.498 27.4655V25.8293ZM27.1697 32.9002C27.1697 33.0021 27.1479 33.0981 27.1036 33.1925C27.0596 33.2866 26.9981 33.3736 26.9168 33.4456C26.8355 33.5179 26.7374 33.5818 26.6311 33.621C26.5245 33.66 26.4053 33.6793 26.2902 33.6793H24.3771C24.2621 33.6793 24.1425 33.66 24.0362 33.621C23.93 33.5821 23.8318 33.5179 23.7502 33.4456C23.6689 33.3736 23.6074 33.2866 23.5634 33.1925C23.5194 33.0984 23.4973 33.0024 23.4973 32.9002V31.2153C23.4973 31.1134 23.5191 31.0078 23.5634 30.9134C23.6074 30.8192 23.6689 30.7323 23.7502 30.6603C23.8318 30.5883 23.9296 30.5338 24.0362 30.4948C24.1425 30.4558 24.2621 30.4362 24.3771 30.4362H26.2902C26.4053 30.4362 26.5245 30.4555 26.6311 30.4948C26.7374 30.5338 26.8355 30.5883 26.9168 30.6603C26.9984 30.7323 27.0596 30.8192 27.1036 30.9134C27.1476 31.0078 27.1697 31.1134 27.1697 31.2153V32.9002ZM29.6324 25.9169C29.6324 25.815 29.6542 25.719 29.6985 25.6245C29.7425 25.5304 29.804 25.4435 29.8853 25.3712C29.9666 25.2992 30.0647 25.235 30.171 25.1957C30.2776 25.1568 30.3968 25.1371 30.5119 25.1371H32.5896C32.7047 25.1371 32.8239 25.1564 32.9305 25.1957C33.0368 25.2347 33.1349 25.2989 33.2165 25.3712C33.2978 25.4432 33.3594 25.5301 33.4033 25.6245C33.4473 25.7187 33.4691 25.8147 33.4691 25.9169V27.7479C33.4691 27.8498 33.4473 27.9554 33.4033 28.0499C33.3594 28.144 33.2978 28.2309 33.2165 28.3029C33.1353 28.3752 33.0371 28.4295 32.9305 28.4684C32.8243 28.5074 32.7047 28.527 32.5896 28.527H30.5119C30.3968 28.527 30.2776 28.5077 30.171 28.4684C30.0647 28.4295 29.9666 28.3749 29.8853 28.3029C29.8037 28.2309 29.7425 28.144 29.6985 28.0499C29.6545 27.9557 29.6324 27.8498 29.6324 27.7479V25.9169ZM30.1713 33.8545C30.0651 33.8155 29.9669 33.761 29.8857 33.689C29.804 33.617 29.7428 33.53 29.6988 33.4356C29.6549 33.3415 29.6327 33.2358 29.6327 33.1336V31.3126C29.6327 31.2107 29.6545 31.105 29.6988 31.0106C29.7428 30.9165 29.8044 30.8295 29.8857 30.7572C29.9669 30.6852 30.0651 30.6307 30.1713 30.5917C30.2779 30.5528 30.3972 30.5331 30.5122 30.5331H32.59C32.705 30.5331 32.8243 30.5525 32.9309 30.5917C33.0371 30.6307 33.1353 30.6852 33.2169 30.7572C33.2981 30.8295 33.3597 30.9162 33.4037 31.0106C33.4477 31.1047 33.4695 31.2104 33.4695 31.3126V33.1339C33.4695 33.2358 33.4477 33.3418 33.4037 33.4359C33.3597 33.53 33.2981 33.617 33.2169 33.6893C33.1356 33.7613 33.0375 33.8158 32.9309 33.8548C32.8246 33.8937 32.705 33.913 32.59 33.913H30.5119C30.3968 33.913 30.2776 33.8934 30.1713 33.8545Z" fill="white"/>
<path d="M38.8031 16H20.6645L17.1768 19.235H35.3031L38.8031 16Z" fill="white"/>
<path d="M36.591 38.8332L40 35.6711V17.146L36.591 20.2968V38.8332Z" fill="white"/>
<path d="M23.3421 37.815C22.6751 37.815 22.1425 38.2878 22.1425 38.8621V39.9975H28.693V38.8621C28.693 38.2878 28.1618 37.815 27.4899 37.815H23.3421Z" fill="white"/>
</svg>
