<svg width="788" height="368" viewBox="0 0 788 368" fill="none" xmlns="http://www.w3.org/2000/svg">
<g clip-path="url(#clip0_718_8131)">
<path d="M87.254 366.19L85.9017 365.886C100.98 298.856 138.872 237.986 192.598 194.49C233.217 161.656 281.526 139.697 332.978 130.68C384.43 121.663 437.332 125.884 486.701 142.946C536.07 160.009 580.284 189.351 615.178 228.21C650.072 267.069 674.499 314.167 686.158 365.068L684.807 365.375C652.89 225.282 530.066 127.439 386.123 127.439C244.065 127.439 118.373 227.848 87.254 366.19Z" fill="#3F3D56"/>
<path d="M728.744 334.283L730.823 349.524L716.269 350.91L718.348 332.204L728.744 334.283Z" fill="#A0616A"/>
<path d="M660.132 125.053C660.132 125.053 661.518 143.759 661.518 144.451C661.518 145.144 651.815 192.948 651.815 192.948C651.815 192.948 637.954 219.275 651.815 218.582C665.676 217.89 661.518 193.641 661.518 193.641L676.072 153.458L669.835 125.053H660.132Z" fill="#A0616A"/>
<path d="M683.003 334.283L680.923 349.524L695.478 350.91L693.398 332.204L683.003 334.283Z" fill="#A0616A"/>
<path d="M667.062 191.563L663.597 196.412C663.597 196.412 661.518 217.197 663.597 224.125C665.676 231.053 669.835 262.922 669.835 265.001C669.835 267.079 670.528 268.465 669.835 269.158C669.142 269.85 667.062 269.85 668.449 271.236C669.835 272.622 669.835 276.779 669.835 276.779V280.243L678.844 331.511C678.844 331.511 673.3 337.746 677.458 337.746C681.617 337.746 696.864 337.746 696.171 330.818L694.785 330.125C694.785 330.125 692.705 284.4 693.398 282.321C694.091 280.243 693.398 276.086 693.398 276.086C693.398 276.086 692.012 274.007 693.398 273.315C694.785 272.622 694.785 267.079 694.785 267.079L701.022 224.818C701.022 224.818 706.566 253.223 710.032 255.994C713.497 258.765 712.804 265.694 712.804 265.694L715.576 326.661C715.576 326.661 712.804 333.589 715.576 334.975C718.348 336.361 730.13 341.21 730.823 334.282C731.516 327.354 734.982 267.079 734.982 264.308C734.982 261.537 734.289 260.151 734.982 258.073C735.675 255.994 734.289 255.994 734.982 255.994C735.675 255.994 733.595 253.916 733.595 252.53V218.582C733.595 218.582 734.289 211.654 734.982 210.269C735.675 208.883 734.289 207.497 734.982 205.419C735.675 203.341 733.595 196.412 733.595 196.412L702.408 188.099L667.062 191.563Z" fill="#0B0E16"/>
<path d="M691.319 346.753C691.319 346.753 694.785 343.289 689.933 343.289C686.819 343.353 683.751 344.06 680.923 345.368L677.458 357.838C677.458 357.838 663.251 369.27 679.191 367.884C695.131 366.498 692.705 367.538 692.705 367.538C692.705 367.538 697.557 366.152 698.25 364.766C698.943 363.381 696.864 343.289 696.864 343.289C696.864 343.289 694.785 348.832 691.319 346.753Z" fill="#0B0E16"/>
<path d="M721.12 346.753C721.12 346.753 717.655 343.289 722.507 343.289C725.621 343.353 728.689 344.06 731.516 345.368L734.982 357.838C734.982 357.838 749.189 369.27 733.249 367.884C717.309 366.498 717.655 367.538 717.655 367.538C717.655 367.538 712.804 366.152 712.111 364.766C711.418 363.381 715.576 343.289 715.576 343.289C715.576 343.289 717.655 348.832 721.12 346.753Z" fill="#0B0E16"/>
<path d="M204.481 122.927H198.311V366.557H204.481V122.927Z" fill="#3F3D56"/>
<path d="M261.422 153.975C261.815 239.166 201.858 308.505 201.858 308.505C201.858 308.505 141.264 239.722 140.871 154.53C140.478 69.3389 200.436 0 200.436 0C200.436 0 261.03 68.7835 261.422 153.975Z" fill="#2C4CC9"/>
<path d="M633.796 265.693H156.283V366.844H633.796V265.693Z" fill="#F2F2F2"/>
<path d="M141.036 276.778L193.015 168.007H608.153L646.964 276.778H141.036Z" fill="#3F3D56"/>
<path d="M463.305 174.936H270.637V238.674H463.305V174.936Z" fill="#F2F2F2"/>
<path d="M283.112 122.975L252.617 186.713H481.325L463.305 122.975H283.112Z" fill="#3F3D56"/>
<path d="M439.741 285.785H287.617V366.844H439.741V285.785Z" fill="#CCCCCC"/>
<path d="M256.083 288.557H174.996V366.844H256.083V288.557Z" fill="#CCCCCC"/>
<path d="M508.007 293.406H466.077V366.844H508.007V293.406Z" fill="#3F3D56"/>
<path d="M788 366.498H0V367.884H788V366.498Z" fill="#3F3D56"/>
<path d="M128.755 205.806H124.683V366.575H128.755V205.806Z" fill="#3F3D56"/>
<path d="M166.33 226.294C166.59 282.511 127.024 328.268 127.024 328.268C127.024 328.268 87.0387 282.878 86.7795 226.661C86.5203 170.444 126.086 124.688 126.086 124.688C126.086 124.688 166.071 170.077 166.33 226.294Z" fill="#2C4CC9"/>
<path opacity="0.1" d="M166.33 226.294C166.59 282.511 127.024 328.268 127.024 328.268C127.024 328.268 87.0387 282.878 86.7795 226.661C86.5203 170.444 126.086 124.688 126.086 124.688C126.086 124.688 166.071 170.077 166.33 226.294Z" fill="#0B0E16"/>
<path d="M75.8252 205.806H71.7536V366.575H75.8252V205.806Z" fill="#3F3D56"/>
<path d="M113.401 226.294C113.66 282.511 74.0945 328.268 74.0945 328.268C74.0945 328.268 34.1089 282.878 33.8497 226.661C33.5906 170.444 73.1559 124.688 73.1559 124.688C73.1559 124.688 113.142 170.077 113.401 226.294Z" fill="#2C4CC9"/>
<path d="M573.847 297.563H553.402V316.616H573.847V297.563Z" fill="#3F3D56"/>
<path d="M601.222 297.563H580.778V316.616H601.222V297.563Z" fill="#3F3D56"/>
<path d="M573.847 323.543H553.402V343.288H573.847V323.543Z" fill="#3F3D56"/>
<path d="M601.222 323.543H580.778V343.288H601.222V323.543Z" fill="#3F3D56"/>
<path d="M304.31 192.376H288.31V207.286H304.31V192.376Z" fill="#3F3D56"/>
<path d="M325.734 192.376H309.734V207.286H325.734V192.376Z" fill="#3F3D56"/>
<path d="M304.31 212.709H288.31V228.162H304.31V212.709Z" fill="#3F3D56"/>
<path d="M325.734 212.709H309.734V228.162H325.734V212.709Z" fill="#3F3D56"/>
<path d="M424.208 192.376H408.208V207.286H424.208V192.376Z" fill="#3F3D56"/>
<path d="M445.632 192.376H429.632V207.286H445.632V192.376Z" fill="#3F3D56"/>
<path d="M424.208 212.709H408.208V228.162H424.208V212.709Z" fill="#3F3D56"/>
<path d="M445.632 212.709H429.632V228.162H445.632V212.709Z" fill="#3F3D56"/>
<path d="M364.606 192.376H348.605V207.286H364.606V192.376Z" fill="#3F3D56"/>
<path d="M386.03 192.376H370.029V207.286H386.03V192.376Z" fill="#3F3D56"/>
<path d="M364.606 212.709H348.605V228.162H364.606V212.709Z" fill="#3F3D56"/>
<path d="M386.03 212.709H370.029V228.162H386.03V212.709Z" fill="#3F3D56"/>
<path d="M485.508 300.847H475.434V310.235H485.508V300.847Z" fill="#F2F2F2"/>
<path d="M498.997 300.847H488.923V310.235H498.997V300.847Z" fill="#F2F2F2"/>
<path d="M485.508 313.648H475.434V323.378H485.508V313.648Z" fill="#F2F2F2"/>
<path d="M498.997 313.648H488.923V323.378H498.997V313.648Z" fill="#F2F2F2"/>
<path d="M502.463 338.092C503.994 338.092 505.235 336.852 505.235 335.321C505.235 333.791 503.994 332.55 502.463 332.55C500.932 332.55 499.69 333.791 499.69 335.321C499.69 336.852 500.932 338.092 502.463 338.092Z" fill="#F2F2F2"/>
<path d="M440.088 294.445H287.617V295.831H440.088V294.445Z" fill="#F2F2F2"/>
<path d="M440.088 300.681H287.617V302.066H440.088V300.681Z" fill="#F2F2F2"/>
<path d="M440.088 306.916H287.617V308.302H440.088V306.916Z" fill="#F2F2F2"/>
<path d="M440.088 313.151H287.617V314.537H440.088V313.151Z" fill="#F2F2F2"/>
<path d="M440.088 319.387H287.617V320.772H440.088V319.387Z" fill="#F2F2F2"/>
<path d="M440.088 325.622H287.617V327.008H440.088V325.622Z" fill="#F2F2F2"/>
<path d="M440.088 331.857H287.617V333.243H440.088V331.857Z" fill="#F2F2F2"/>
<path d="M440.088 338.093H287.617V339.478H440.088V338.093Z" fill="#F2F2F2"/>
<path d="M440.088 344.328H287.617V345.714H440.088V344.328Z" fill="#F2F2F2"/>
<path d="M440.088 350.563H287.617V351.949H440.088V350.563Z" fill="#F2F2F2"/>
<path d="M440.088 356.799H287.617V358.184H440.088V356.799Z" fill="#F2F2F2"/>
<path d="M256.083 294.445H174.996V295.831H256.083V294.445Z" fill="#F2F2F2"/>
<path d="M256.083 300.681H174.996V302.066H256.083V300.681Z" fill="#F2F2F2"/>
<path d="M256.083 306.916H174.996V308.302H256.083V306.916Z" fill="#F2F2F2"/>
<path d="M256.083 313.151H174.996V314.537H256.083V313.151Z" fill="#F2F2F2"/>
<path d="M256.083 319.387H174.996V320.772H256.083V319.387Z" fill="#F2F2F2"/>
<path d="M256.083 325.622H174.996V327.008H256.083V325.622Z" fill="#F2F2F2"/>
<path d="M256.083 331.857H174.996V333.243H256.083V331.857Z" fill="#F2F2F2"/>
<path d="M256.083 338.093H174.996V339.478H256.083V338.093Z" fill="#F2F2F2"/>
<path d="M256.083 344.328H174.996V345.714H256.083V344.328Z" fill="#F2F2F2"/>
<path d="M256.083 350.563H174.996V351.949H256.083V350.563Z" fill="#F2F2F2"/>
<path d="M256.083 356.799H174.996V358.184H256.083V356.799Z" fill="#F2F2F2"/>
<path d="M607.807 223.779C638.81 223.779 663.944 198.654 663.944 167.661C663.944 136.668 638.81 111.543 607.807 111.543C576.803 111.543 551.669 136.668 551.669 167.661C551.669 198.654 576.803 223.779 607.807 223.779Z" fill="#2C4CC9"/>
<path d="M643.152 162.118H613.351V132.327H602.262V162.118H572.461V173.203H602.262V202.994H613.351V173.203H643.152V162.118Z" fill="white"/>
<path d="M676.072 70.3202C686.024 70.3202 694.091 62.2554 694.091 52.3071C694.091 42.3587 686.024 34.2939 676.072 34.2939C666.12 34.2939 658.053 42.3587 658.053 52.3071C658.053 62.2554 666.12 70.3202 676.072 70.3202Z" fill="#A0616A"/>
<path d="M669.835 65.4711C669.835 65.4711 672.607 79.3274 672.607 81.4058C672.607 83.4842 684.389 89.7195 684.389 89.7195L697.557 73.092C697.557 73.092 689.24 61.3142 689.24 58.543L669.835 65.4711Z" fill="#A0616A"/>
<path d="M680.23 83.4842C680.23 83.4842 674.19 81.877 672.359 79.2165C672.359 79.2165 653.201 98.0332 653.201 101.497L668.449 128.517C668.449 128.517 668.449 138.216 669.835 138.909C671.221 139.602 669.835 138.909 669.835 141.68C669.835 144.452 665.676 162.465 667.062 165.236C668.449 168.007 669.835 165.929 668.449 170.086C667.062 174.243 663.597 196.413 663.597 196.413C663.597 196.413 676.072 192.256 694.091 199.184C712.111 206.112 733.595 196.413 733.595 196.413C733.595 196.413 728.051 183.942 729.437 179.785C730.823 175.628 725.972 168.007 725.972 168.007L722.507 104.269C722.507 104.269 727.358 75.8632 723.893 74.4776L716.962 71.7063L694.768 68.9795C694.768 68.9795 689.24 82.7913 680.23 83.4842Z" fill="#D0CDE1"/>
<path d="M660.132 96.6475L653.201 101.497C653.201 101.497 649.736 111.889 653.201 116.739C656.667 121.589 658.053 128.517 658.053 128.517L671.914 127.131L660.132 96.6475Z" fill="#D0CDE1"/>
<path d="M711.418 102.883C711.418 102.883 707.404 113.199 708.243 123.406C708.396 125.234 709.012 126.993 710.032 128.517L660.863 151.852C660.863 151.852 638.647 154.151 644.192 163.85C649.736 173.55 669.835 159.001 669.835 159.001C669.835 159.001 722.507 151.38 726.665 143.759C730.823 136.138 733.595 104.268 733.595 104.268L711.418 102.883Z" fill="#A0616A"/>
<path d="M662.314 33.2705L659.189 32.0196C659.189 32.0196 665.724 24.8268 674.817 25.4523L672.26 22.6378C672.26 22.6378 678.511 20.136 684.194 26.7032C687.182 30.1555 690.638 34.2134 692.793 38.7846H696.14L694.743 41.8597L699.633 44.9349L694.614 44.3825C695.089 47.0374 694.927 49.7671 694.139 52.3468L694.274 54.7774C694.274 54.7774 688.456 45.7795 688.456 44.5286V47.6559C688.456 47.6559 685.331 44.8413 685.331 42.965L683.626 45.1541L682.773 41.7141L672.26 45.1541L673.965 42.3395L667.429 43.2777L669.987 39.8377C669.987 39.8377 662.599 43.9031 662.314 47.3432C662.03 50.7832 658.336 55.1613 658.336 55.1613L656.631 52.034C656.631 52.034 654.074 37.9614 662.314 33.2705Z" fill="#0B0E16"/>
<path d="M713.497 74.4775H723.893C723.893 74.4775 731.516 75.8632 733.595 89.7194C735.675 103.576 737.754 107.04 735.675 107.04C733.595 107.04 708.646 106.347 708.646 105.654C708.646 104.961 713.497 74.4775 713.497 74.4775Z" fill="#D0CDE1"/>
</g>
<defs>
<clipPath id="clip0_718_8131">
<rect width="788" height="368" fill="white"/>
</clipPath>
</defs>
</svg>
