<svg width="639" height="506" viewBox="0 0 639 506" fill="none" xmlns="http://www.w3.org/2000/svg">
<g clip-path="url(#clip0_718_7927)">
<path d="M638.146 31.4101H94.4116C94.1834 31.405 93.9662 31.3109 93.8065 31.1478C93.6469 30.9848 93.5575 30.7657 93.5575 30.5375C93.5575 30.3094 93.6469 30.0903 93.8065 29.9273C93.9662 29.7642 94.1834 29.67 94.4116 29.665H638.146C638.374 29.67 638.591 29.7642 638.751 29.9273C638.911 30.0903 639 30.3094 639 30.5375C639 30.7657 638.911 30.9848 638.751 31.1478C638.591 31.3109 638.374 31.405 638.146 31.4101Z" fill="#CACACA"/>
<path d="M113.635 19.1953C118.823 19.1953 123.029 14.8983 123.029 9.59764C123.029 4.29701 118.823 0 113.635 0C108.446 0 104.24 4.29701 104.24 9.59764C104.24 14.8983 108.446 19.1953 113.635 19.1953Z" fill="white"/>
<path d="M146.089 19.1953C151.278 19.1953 155.484 14.8983 155.484 9.59764C155.484 4.29701 151.278 0 146.089 0C140.9 0 136.694 4.29701 136.694 9.59764C136.694 14.8983 140.9 19.1953 146.089 19.1953Z" fill="white"/>
<path d="M178.543 19.1953C183.732 19.1953 187.938 14.8983 187.938 9.59764C187.938 4.29701 183.732 0 178.543 0C173.355 0 169.149 4.29701 169.149 9.59764C169.149 14.8983 173.355 19.1953 178.543 19.1953Z" fill="white"/>
<path d="M618.698 2.37891H595.644C595.187 2.38797 594.752 2.57574 594.432 2.9019C594.112 3.22806 593.932 3.66659 593.932 4.12334C593.932 4.58008 594.112 5.01861 594.432 5.34477C594.752 5.67093 595.187 5.8587 595.644 5.86777H618.698C619.155 5.8587 619.59 5.67093 619.91 5.34477C620.23 5.01861 620.409 4.58008 620.409 4.12334C620.409 3.66659 620.23 3.22806 619.91 2.9019C619.59 2.57574 619.155 2.38797 618.698 2.37891Z" fill="white"/>
<path d="M618.698 8.92676H595.644C595.187 8.93582 594.752 9.1236 594.432 9.44975C594.112 9.77591 593.932 10.2144 593.932 10.6712C593.932 11.1279 594.112 11.5665 594.432 11.8926C594.752 12.2188 595.187 12.4066 595.644 12.4156H618.698C619.155 12.4066 619.59 12.2188 619.91 11.8926C620.23 11.5665 620.409 11.1279 620.409 10.6712C620.409 10.2144 620.23 9.77591 619.91 9.44975C619.59 9.1236 619.155 8.93582 618.698 8.92676Z" fill="white"/>
<path d="M618.698 15.4668H595.644C595.187 15.4759 594.752 15.6636 594.432 15.9898C594.112 16.3159 593.932 16.7545 593.932 17.2112C593.932 17.668 594.112 18.1065 594.432 18.4327C594.752 18.7588 595.187 18.9466 595.644 18.9557H618.698C619.155 18.9466 619.59 18.7588 619.91 18.4327C620.23 18.1065 620.409 17.668 620.409 17.2112C620.409 16.7545 620.23 16.3159 619.91 15.9898C619.59 15.6636 619.155 15.4759 618.698 15.4668Z" fill="white"/>
<path d="M610.089 60.8711H114.838C112.096 60.8752 109.467 61.9656 107.528 63.9034C105.589 65.8412 104.498 68.4683 104.494 71.2088V72.8759C104.498 75.6163 105.589 78.2434 107.528 80.1812C109.467 82.119 112.096 83.2095 114.838 83.2136H610.089C612.831 83.2095 615.46 82.119 617.399 80.1812C619.338 78.2434 620.429 75.6163 620.433 72.8759V71.2088C620.429 68.4683 619.338 65.8412 617.399 63.9034C615.46 61.9656 612.831 60.8752 610.089 60.8711Z" fill="#F0F0F0"/>
<path d="M174.606 76.1669H127.464C126.409 76.1653 125.398 75.7455 124.653 74.9996C123.907 74.2537 123.489 73.2427 123.489 72.1887C123.489 71.1346 123.907 70.1236 124.653 69.3777C125.398 68.6318 126.409 68.212 127.464 68.2104H174.606C179.74 68.1388 179.791 76.2391 174.606 76.1669Z" fill="white"/>
<path d="M315.629 76.1669H268.487C267.432 76.1653 266.421 75.7455 265.676 74.9996C264.931 74.2537 264.512 73.2427 264.512 72.1887C264.512 71.1346 264.931 70.1236 265.676 69.3777C266.421 68.6318 267.432 68.212 268.487 68.2104H315.629C320.763 68.1388 320.814 76.2391 315.629 76.1669Z" fill="white"/>
<path d="M456.653 76.1669H409.511C408.456 76.1653 407.445 75.7455 406.7 74.9996C405.954 74.2537 405.536 73.2427 405.536 72.1887C405.536 71.1346 405.954 70.1236 406.7 69.3777C407.445 68.6318 408.456 68.212 409.511 68.2104H456.653C461.787 68.1388 461.838 76.2391 456.653 76.1669Z" fill="white"/>
<path d="M590.367 76.5965H543.225C542.17 76.595 541.159 76.1752 540.414 75.4293C539.669 74.6834 539.25 73.6724 539.25 72.6183C539.25 71.5643 539.669 70.5533 540.414 69.8074C541.159 69.0615 542.17 68.6417 543.225 68.6401H590.367C595.501 68.5685 595.552 76.6688 590.367 76.5965Z" fill="#2C4CC9"/>
<path d="M516.815 60.8711H515.096V83.2136H516.815V60.8711Z" fill="white"/>
<path d="M177.603 292.052C176.491 292.132 175.374 291.967 174.331 291.569C173.289 291.171 172.347 290.55 171.571 289.749C170.795 288.947 170.204 287.986 169.84 286.932C169.476 285.878 169.348 284.757 169.465 283.648L123.794 231.276L137.971 222.65L178.406 276.843C180.257 277.162 181.927 278.148 183.099 279.616C184.271 281.083 184.863 282.929 184.765 284.803C184.666 286.678 183.882 288.451 182.562 289.787C181.242 291.123 179.478 291.929 177.603 292.052H177.603Z" fill="#FFD5D5"/>
<path d="M110.123 208.995C110.123 208.995 106.544 210.851 111.903 217.499C116.193 222.822 134.775 248.287 142.476 253.838C141.964 255.066 141.875 256.429 142.224 257.713C142.572 258.996 143.338 260.127 144.401 260.928L157.662 246.322C157.229 241.875 154.244 241.918 152.542 242.35L147.666 231.071L129.696 201.852L112.686 207.608L110.123 208.995Z" fill="#2C4CC9"/>
<path d="M551.185 425.655H178.901C175.93 425.652 173.082 424.471 170.982 422.372C168.881 420.273 167.7 417.427 167.696 414.458V130.073C167.7 127.104 168.881 124.258 170.982 122.159C173.083 120.06 175.931 118.879 178.901 118.876H551.185C554.156 118.879 557.004 120.06 559.105 122.159C561.205 124.258 562.387 127.104 562.39 130.073V414.458C562.387 417.426 561.205 420.273 559.105 422.372C557.004 424.471 554.156 425.652 551.185 425.655Z" fill="white"/>
<path d="M551.185 425.655H178.901C175.93 425.652 173.082 424.471 170.982 422.372C168.881 420.273 167.7 417.427 167.696 414.458V130.073C167.7 127.104 168.881 124.258 170.982 122.159C173.083 120.06 175.931 118.879 178.901 118.876H551.185C554.156 118.879 557.004 120.06 559.105 122.159C561.205 124.258 562.387 127.104 562.39 130.073V414.458C562.387 417.426 561.205 420.273 559.105 422.372C557.004 424.471 554.156 425.652 551.185 425.655ZM178.901 120.595C176.386 120.597 173.976 121.597 172.197 123.374C170.419 125.151 169.419 127.56 169.416 130.073V414.458C169.419 416.971 170.419 419.38 172.197 421.157C173.976 422.934 176.386 423.934 178.901 423.936H551.185C553.7 423.934 556.111 422.934 557.889 421.157C559.667 419.38 560.667 416.971 560.67 414.458V130.073C560.667 127.56 559.667 125.151 557.889 123.374C556.111 121.597 553.7 120.597 551.185 120.595H178.901Z" fill="#F0F0F0"/>
<path d="M286.35 188.257L285.42 189.012C285.734 188.748 286.061 188.5 286.397 188.265L286.35 188.257Z" fill="#F2F2F2"/>
<path d="M298.822 284.637C298.251 285.407 297.644 286.15 297.001 286.861C291.404 287.806 286.212 288.827 281.456 289.866C280.08 290.165 278.743 290.467 277.443 290.769L277.473 290.676C277.038 287.31 277.52 283.89 278.869 280.775C278.952 280.584 279.038 280.393 279.127 280.204C280.012 278.302 281.216 276.564 282.685 275.065C285.039 272.851 287.695 270.98 290.574 269.509C295.93 266.528 301.513 263.894 304.077 258.521C305.143 262.995 305.225 267.647 304.317 272.156C303.41 276.664 301.535 280.923 298.822 284.637Z" fill="#D8E0FF"/>
<path d="M403.231 255.042H315.906V280.929H403.231V255.042Z" fill="#F0F0F0"/>
<path d="M364.66 260.392H354.478V280.928H364.66V260.392Z" fill="#CACACA"/>
<path d="M398.14 224.496H320.997V248.312H398.14V224.496Z" fill="#F0F0F0"/>
<path d="M405.961 225.962H313.176C313.021 225.962 312.87 225.916 312.742 225.829C312.613 225.743 312.514 225.62 312.456 225.476C312.398 225.332 312.385 225.174 312.417 225.023C312.45 224.872 312.527 224.733 312.638 224.626L337.996 200.251V189.635C337.997 189.429 338.078 189.231 338.224 189.086C338.37 188.94 338.567 188.858 338.773 188.858H343.778C343.984 188.858 344.181 188.94 344.327 189.086C344.472 189.231 344.554 189.429 344.554 189.635V193.948L346.47 192.107C349.604 189.094 353.762 187.379 358.109 187.307C362.456 187.235 366.669 188.81 369.902 191.717L406.48 224.608C406.597 224.713 406.679 224.851 406.716 225.004C406.753 225.157 406.742 225.317 406.686 225.464C406.63 225.61 406.53 225.737 406.401 225.826C406.271 225.915 406.118 225.962 405.961 225.962V225.962Z" fill="#CACACA"/>
<path d="M341.361 230.536C342.007 230.536 342.647 230.663 343.244 230.911C343.84 231.158 344.383 231.52 344.839 231.977C345.296 232.433 345.658 232.976 345.905 233.572C346.153 234.169 346.28 234.809 346.28 235.455V242.099H336.443V235.455C336.443 234.809 336.57 234.169 336.817 233.572C337.064 232.976 337.427 232.433 337.883 231.977C338.34 231.52 338.882 231.158 339.479 230.911C340.076 230.663 340.715 230.536 341.361 230.536Z" fill="white"/>
<path d="M359.569 230.623C360.873 230.623 362.124 231.141 363.047 232.064C363.969 232.986 364.487 234.237 364.487 235.542V242.186H354.65V235.542C354.65 234.237 355.168 232.986 356.091 232.064C357.013 231.141 358.264 230.623 359.569 230.623Z" fill="white"/>
<path d="M377.776 230.708C379.08 230.708 380.331 231.226 381.254 232.149C382.176 233.071 382.694 234.322 382.694 235.627V242.271H372.857V235.627C372.857 234.322 373.375 233.071 374.298 232.149C375.22 231.226 376.471 230.708 377.776 230.708Z" fill="white"/>
<path d="M385.024 260.133C386.328 260.133 387.579 260.651 388.502 261.573C389.424 262.496 389.942 263.747 389.942 265.051V271.696H380.105V265.051C380.105 263.747 380.624 262.496 381.546 261.573C382.468 260.651 383.719 260.133 385.024 260.133Z" fill="white"/>
<path d="M336.357 260.133C337.661 260.133 338.912 260.651 339.835 261.573C340.757 262.496 341.275 263.747 341.275 265.051V271.696H331.438V265.051C331.438 264.405 331.565 263.766 331.813 263.169C332.06 262.572 332.422 262.03 332.879 261.573C333.335 261.117 333.878 260.754 334.474 260.507C335.071 260.26 335.711 260.133 336.357 260.133Z" fill="white"/>
<path d="M415.989 255.447L399.608 248.199C399.52 248.16 399.425 248.14 399.328 248.14H321.258C321.169 248.14 321.081 248.157 320.998 248.19L303.168 255.439C303.019 255.499 302.896 255.609 302.82 255.75C302.744 255.891 302.719 256.054 302.75 256.211C302.781 256.368 302.865 256.509 302.989 256.611C303.112 256.713 303.267 256.769 303.427 256.769H308.054V280.584H307.536V285L411.601 285.5V280.584H410.738V256.769H415.71C415.868 256.769 416.021 256.714 416.144 256.614C416.267 256.515 416.352 256.376 416.385 256.221C416.418 256.066 416.396 255.905 416.324 255.764C416.252 255.623 416.134 255.511 415.989 255.447ZM409.358 280.584H309.434V256.769H409.358V280.584Z" fill="#CACACA"/>
<path d="M347.488 241.148H334.89V243.219H347.488V241.148Z" fill="#CACACA"/>
<path d="M384.42 241.148H371.822V243.219H384.42V241.148Z" fill="#CACACA"/>
<path d="M391.323 271.005H378.725V273.076H391.323V271.005Z" fill="#CACACA"/>
<path d="M342.483 271.005H329.885V273.076H342.483V271.005Z" fill="#CACACA"/>
<path d="M366.693 244.52H353.595V234.041C353.836 229.253 357.929 228.866 361.775 229.123C362.421 229.123 363.06 229.25 363.657 229.498C364.254 229.745 364.796 230.107 365.253 230.564C365.709 231.02 366.072 231.563 366.319 232.159C366.566 232.756 366.693 233.396 366.693 234.041V244.52Z" fill="#CACACA"/>
<path d="M269.771 270.315C272.281 267.796 274.413 264.927 276.1 261.798C277.782 258.684 279.016 255.349 279.765 251.891C280.525 248.381 280.756 244.778 280.451 241.2C279.82 233.913 277.066 226.971 272.529 221.232C272.252 220.883 271.969 220.539 271.679 220.201C271.355 219.823 270.816 220.376 271.137 220.752C275.763 226.202 278.689 232.889 279.552 239.984C280.179 245.406 279.575 250.9 277.787 256.057C275.998 261.214 273.07 265.902 269.22 269.774C268.869 270.126 269.42 270.668 269.771 270.315Z" fill="#3F3D56"/>
<path d="M272.846 221.886C272.533 221.771 272.225 221.64 271.925 221.493C271.91 221.517 271.896 221.54 271.881 221.564L272.846 221.886Z" fill="#E6E6E6"/>
<path d="M273.104 211.951C272.694 211.341 272.1 210.877 271.408 210.626C270.716 210.375 269.963 210.352 269.257 210.558C268.55 210.764 267.928 211.19 267.48 211.773C267.032 212.357 266.782 213.068 266.765 213.803C266.701 214.968 266.961 216.129 267.518 217.156C268.477 219.041 270.024 220.563 271.925 221.493C272.903 220.094 273.624 218.532 274.055 216.88C274.268 216.039 274.294 215.162 274.129 214.31C273.965 213.458 273.615 212.653 273.104 211.951Z" fill="#2C4CC9"/>
<path d="M286.518 221.492C287.055 219.272 287.104 216.961 286.661 214.72C286.219 212.479 285.296 210.361 283.955 208.511C283.72 213.041 278.996 215.964 277.292 220.169C276.771 221.485 276.552 222.901 276.653 224.312C276.754 225.724 277.171 227.094 277.874 228.323L278.164 231.757C280.216 230.751 282.025 229.312 283.468 227.54C284.91 225.768 285.951 223.704 286.518 221.492Z" fill="#2C4CC9"/>
<path d="M295.035 234.271C292.693 238.158 287.148 238.513 283.664 241.421C282.584 242.336 281.724 243.483 281.148 244.775C280.572 246.068 280.294 247.473 280.335 248.888L278.973 252.054C281.259 252.148 283.538 251.737 285.648 250.852C287.758 249.966 289.646 248.627 291.18 246.929C292.713 245.232 293.853 243.218 294.52 241.03C295.186 238.842 295.362 236.535 295.035 234.271Z" fill="#2C4CC9"/>
<path d="M273.238 242.909C271.464 244.354 270.03 246.171 269.038 248.232C268.046 250.292 267.521 252.546 267.499 254.833C267.477 257.12 267.96 259.383 268.912 261.462C269.865 263.542 271.264 265.386 273.01 266.864L274.152 263.612C275.141 262.599 275.889 261.377 276.341 260.036C276.792 258.695 276.936 257.269 276.762 255.865C276.168 251.367 272.328 247.354 273.238 242.909Z" fill="#2C4CC9"/>
<path d="M273.495 286.807C272.428 289.577 270.371 291.854 267.722 293.197C267.586 293.273 267.45 293.346 267.314 293.417C267.201 293.477 267.086 293.535 266.97 293.59C266.039 293.798 265.101 293.976 264.167 294.174L264.16 294.177C262.767 294.569 261.453 294.952 260.218 295.324C259.524 295.531 258.854 295.734 258.212 295.935C258.127 295.959 258.045 295.986 257.96 296.012C257.849 296.047 257.741 296.081 257.633 296.113C257.631 296.108 257.628 296.105 257.628 296.1V296.095C257.132 294.987 256.652 293.876 256.191 292.748C254.376 288.406 252.935 283.918 251.884 279.332C250.574 273.762 250.21 268.012 250.807 262.321C251.267 258.401 252.341 254.578 253.991 250.992C254.229 250.481 254.478 249.975 254.739 249.475C254.817 249.318 254.898 249.162 254.985 249.007V249.005C254.992 248.989 255.002 248.974 255.012 248.956L255.05 248.886V248.883C255.276 248.464 255.512 248.051 255.756 247.644C256.97 245.595 258.406 243.684 260.039 241.948C262.799 238.965 266.206 236.653 269.999 235.191H270.002C270.184 235.12 270.369 235.054 270.554 234.988C270.483 235.187 270.413 235.383 270.345 235.582C269.419 238.254 268.708 240.995 268.219 243.78C268.182 243.994 268.145 244.21 268.111 244.427C267.012 251.146 267.172 258.01 268.581 264.67C268.584 264.688 268.589 264.706 268.592 264.724C268.905 266.199 269.282 267.658 269.723 269.101C269.734 269.142 269.744 269.18 269.757 269.222C269.842 269.501 269.932 269.781 270.022 270.058C270.284 270.867 270.566 271.67 270.869 272.466C272.633 277.113 275.078 282.096 273.495 286.807Z" fill="#D8E0FF"/>
<path d="M270.666 235.209C270.557 235.333 270.449 235.458 270.345 235.582C268.099 238.197 266.149 241.053 264.53 244.096C264.449 244.249 264.368 244.404 264.29 244.559C262.079 248.808 260.541 253.373 259.73 258.093V258.098C259.723 258.142 259.715 258.186 259.708 258.232L259.708 258.237C259.521 259.34 259.379 260.453 259.28 261.566C259.042 263.664 259.137 265.786 259.562 267.855C259.957 269.549 260.743 271.127 261.856 272.464C261.963 272.599 262.075 272.732 262.192 272.865C262.283 272.97 262.376 273.075 262.473 273.177C263.369 274.145 264.358 275.058 265.196 276.088C265.579 276.553 265.921 277.051 266.216 277.575C266.683 278.453 266.96 279.42 267.027 280.412C267.095 281.405 266.951 282.4 266.606 283.333C265.691 285.612 264.326 287.685 262.593 289.426C260.85 291.383 259.012 293.391 258.211 295.936C258.127 295.959 258.044 295.986 257.96 296.012C257.849 296.047 257.741 296.081 257.633 296.113C257.66 296.177 257.689 296.241 257.717 296.305C257.688 296.283 257.664 296.255 257.648 296.222C257.632 296.189 257.625 296.152 257.626 296.116C257.625 296.11 257.626 296.105 257.628 296.1V296.095C257.628 296.077 257.63 296.058 257.635 296.041C257.836 295.335 258.11 294.652 258.453 294.003C258.453 293.998 258.453 293.998 258.456 293.995C260.286 290.521 263.756 288.064 265.54 284.523C266.086 283.58 266.409 282.524 266.484 281.436C266.559 280.349 266.384 279.259 265.972 278.249C265.688 277.656 265.338 277.098 264.927 276.585C264.125 275.557 263.144 274.654 262.258 273.711C262.037 273.479 261.827 273.241 261.624 272.998C260.517 271.726 259.697 270.231 259.218 268.614C258.689 266.574 258.512 264.459 258.694 262.359C258.778 261.017 258.934 259.675 259.152 258.342C259.179 258.169 259.209 257.999 259.241 257.826V257.824C260.741 249.455 264.456 241.641 269.999 235.191H270.002C270.104 235.067 270.211 234.942 270.318 234.82C270.54 234.569 270.888 234.96 270.666 235.209Z" fill="white"/>
<path d="M259.394 258.404C257.776 258.026 256.345 257.085 255.357 255.75C254.369 254.415 253.889 252.772 254.001 251.115C254.006 251.048 254.037 250.985 254.088 250.94C254.138 250.895 254.205 250.871 254.272 250.874C254.34 250.877 254.404 250.906 254.451 250.955C254.498 251.004 254.523 251.069 254.523 251.137C254.416 252.68 254.864 254.21 255.786 255.451C256.709 256.692 258.045 257.563 259.554 257.907C259.881 257.982 259.72 258.479 259.394 258.404Z" fill="white"/>
<path d="M261.718 272.548C264.619 270.784 266.749 267.992 267.682 264.728C267.774 264.404 268.272 264.564 268.18 264.887C267.202 268.282 264.98 271.183 261.957 273.013C261.668 273.187 261.431 272.722 261.718 272.548V272.548Z" fill="white"/>
<path d="M264.382 244.034C264.977 244.311 265.632 244.435 266.288 244.397C266.944 244.358 267.579 244.157 268.138 243.812C268.424 243.634 268.661 244.1 268.377 244.277C267.758 244.655 267.056 244.876 266.331 244.92C265.607 244.965 264.883 244.831 264.222 244.531C264.158 244.508 264.104 244.462 264.073 244.401C264.041 244.34 264.034 244.269 264.053 244.203C264.075 244.137 264.121 244.083 264.183 244.051C264.244 244.019 264.316 244.013 264.382 244.034Z" fill="white"/>
<path d="M304.932 255.703C304.755 255.818 304.584 255.935 304.407 256.053L304.404 256.055C302.056 257.627 299.838 259.387 297.775 261.318L297.772 261.32C297.608 261.468 297.447 261.619 297.289 261.769C292.379 266.465 288.379 272.028 285.492 278.177L285.47 278.223C284.324 280.679 283.366 283.219 282.604 285.82C282.219 287.138 281.859 288.511 281.456 289.865C280.08 290.165 278.743 290.466 277.443 290.769C275.792 291.151 274.203 291.534 272.674 291.918C272.011 292.08 271.36 292.245 270.721 292.41C269.514 292.931 268.258 293.326 266.97 293.59C266.039 293.798 265.101 293.976 264.167 294.174L264.16 294.177C262.767 294.569 261.453 294.952 260.218 295.324C259.524 295.531 258.854 295.734 258.211 295.935C258.127 295.959 258.045 295.986 257.96 296.012C258.119 295.344 258.281 294.671 258.453 294.003C258.453 293.998 258.453 293.998 258.455 293.995C259.916 287.956 262.089 282.112 264.927 276.585C265.014 276.419 265.1 276.251 265.196 276.088C266.367 273.911 267.694 271.822 269.167 269.836C269.346 269.59 269.532 269.347 269.72 269.103L269.723 269.101C270.513 268.085 271.347 267.101 272.225 266.148C272.378 265.979 272.536 265.811 272.695 265.645C272.771 265.564 272.851 265.484 272.93 265.403C273.226 265.097 273.53 264.794 273.839 264.5C274.325 264.033 274.826 263.578 275.337 263.136C277.393 261.369 279.634 259.829 282.022 258.543C282.037 258.535 282.055 258.524 282.07 258.517C288.96 254.82 296.956 253.363 304.364 255.53C304.555 255.588 304.741 255.643 304.932 255.703Z" fill="#D8E0FF"/>
<path d="M260.218 295.324C261.492 294.817 262.812 294.433 264.16 294.177C262.767 294.569 261.453 294.952 260.218 295.324Z" fill="white"/>
<path d="M304.89 255.948C304.728 255.981 304.566 256.015 304.407 256.053C301.038 256.791 297.76 257.898 294.634 259.354C294.475 259.428 294.318 259.501 294.164 259.577C289.84 261.641 285.862 264.361 282.37 267.642L282.368 267.644C282.333 267.673 282.301 267.705 282.271 267.738L282.268 267.74C281.455 268.506 280.672 269.307 279.918 270.141C278.465 271.673 277.262 273.425 276.353 275.331C275.65 276.922 275.327 278.655 275.409 280.392C275.415 280.565 275.425 280.739 275.439 280.914C275.448 281.053 275.459 281.192 275.473 281.334C275.667 283.242 276.085 285.174 275.81 287.097C275.655 288.075 275.295 289.01 274.755 289.841C274.215 290.671 273.506 291.379 272.674 291.918C272.011 292.081 271.36 292.245 270.721 292.411C270.844 292.358 270.964 292.3 271.085 292.24C272.089 291.815 272.983 291.166 273.698 290.343C274.413 289.52 274.931 288.544 275.21 287.49C275.622 285.554 275.191 283.563 274.979 281.631C274.945 281.32 274.919 281.014 274.904 280.708C274.902 280.694 274.901 280.68 274.901 280.667C274.785 278.989 275.031 277.306 275.622 275.731C276.43 273.785 277.563 271.989 278.973 270.422C279.85 269.4 280.782 268.422 281.759 267.492C281.884 267.368 282.012 267.248 282.139 267.131C285.71 263.827 289.764 261.087 294.162 259.006C297.42 257.465 300.843 256.299 304.364 255.531C304.523 255.496 304.685 255.461 304.845 255.429C305.174 255.362 305.217 255.881 304.89 255.948Z" fill="white"/>
<path d="M281.914 267.685C280.85 266.41 280.275 264.798 280.29 263.138C280.306 261.477 280.911 259.876 281.999 258.621C282.22 258.368 282.624 258.699 282.403 258.953C281.388 260.12 280.824 261.611 280.813 263.157C280.801 264.703 281.343 266.203 282.341 267.385C282.558 267.642 282.129 267.941 281.914 267.685Z" fill="white"/>
<path d="M275.248 280.377C278.628 280.714 282.011 279.766 284.722 277.721C284.99 277.518 285.291 277.945 285.023 278.148C282.198 280.271 278.675 281.25 275.159 280.892C274.824 280.857 274.915 280.343 275.248 280.377Z" fill="white"/>
<path d="M294.554 259.214C294.863 259.793 295.311 260.286 295.858 260.65C296.404 261.013 297.033 261.236 297.687 261.296C298.022 261.326 297.931 261.841 297.598 261.811C296.876 261.74 296.182 261.494 295.577 261.094C294.972 260.694 294.474 260.151 294.127 259.515C294.089 259.457 294.075 259.388 294.087 259.32C294.098 259.253 294.135 259.192 294.19 259.151C294.247 259.111 294.317 259.096 294.385 259.107C294.453 259.119 294.514 259.157 294.554 259.214H294.554Z" fill="white"/>
<path d="M425.545 287.126C425.469 287.246 425.391 287.362 425.31 287.477C425.118 287.456 424.928 287.437 424.738 287.417C424.405 287.383 424.074 287.348 423.742 287.314C423.701 287.311 423.66 287.305 423.619 287.302L423.413 286.903L423.03 286.16C422.098 285.44 421.341 284.519 420.814 283.466C420.287 282.414 420.005 281.256 419.987 280.079C420.062 278.467 420.37 276.874 420.9 275.35C421.529 273.191 422.13 271.063 421.399 269C423.496 270.287 425.188 272.138 426.281 274.342C426.886 275.543 427.297 276.833 427.499 278.163C427.945 281.288 427.251 284.469 425.545 287.126Z" fill="#98ADFF"/>
<path d="M430.782 281.696C430.486 282.835 429.936 283.893 429.175 284.791C428.414 285.689 427.46 286.404 426.384 286.884L426.119 287.189L425.821 287.533C425.651 287.514 425.48 287.495 425.31 287.476C425.118 287.456 424.928 287.437 424.738 287.416C424.406 287.382 424.074 287.348 423.743 287.314C423.695 287.185 423.652 287.055 423.611 286.923C422.736 284.159 422.796 281.184 423.784 278.457C423.832 278.322 423.883 278.188 423.938 278.057C424.5 276.693 425.293 275.437 426.282 274.341C427.832 272.604 429.82 271.312 432.038 270.601C429.97 273.756 431.704 278.038 430.782 281.696Z" fill="#D8E0FF"/>
<path d="M424.724 287.038L424.738 287.417C424.405 287.382 424.074 287.348 423.743 287.314C423.701 287.311 423.66 287.305 423.619 287.302C422.805 287.22 421.996 287.143 421.19 287.071C421.01 286.936 420.832 286.795 420.659 286.646C418.333 284.716 416.759 282.03 416.212 279.058C415.666 276.087 416.182 273.017 417.669 270.387C418.02 272.397 419.41 273.884 420.9 275.35C421.946 276.304 422.91 277.343 423.784 278.457C423.989 278.74 424.177 279.035 424.347 279.341C424.91 280.375 425.233 281.522 425.292 282.697C425.351 283.872 425.146 285.046 424.69 286.131L424.724 287.038Z" fill="#D8E0FF"/>
<path d="M308.877 192C309.482 194.195 310.844 196.106 312.723 197.395C313.449 197.889 314.309 198.363 314.557 199.205C314.688 199.742 314.607 200.309 314.332 200.788C314.057 201.261 313.723 201.698 313.338 202.086L313.302 202.218C311.442 201.229 309.882 199.758 308.789 197.957C308.258 197.051 307.985 196.017 308.001 194.966C308.016 193.916 308.319 192.89 308.877 192" fill="#D8E0FF"/>
<path d="M410.283 242.28C409.752 241.373 409.479 240.339 409.494 239.289C409.51 238.238 409.813 237.212 410.371 236.322C410.975 238.518 412.338 240.429 414.217 241.717C414.943 242.211 415.802 242.685 416.051 243.528C416.181 244.064 416.101 244.631 415.826 245.11C415.551 245.584 415.217 246.02 414.831 246.408L414.796 246.54C412.935 245.552 411.376 244.08 410.283 242.28Z" fill="#D8E0FF"/>
<path d="M371.391 288.353C370.859 287.447 370.587 286.412 370.602 285.362C370.618 284.312 370.921 283.286 371.479 282.396C372.083 284.591 373.446 286.502 375.324 287.79C376.051 288.284 376.91 288.758 377.159 289.601C377.289 290.138 377.209 290.704 376.934 291.184C376.659 291.657 376.325 292.093 375.939 292.481L375.904 292.613C374.043 291.625 372.484 290.153 371.391 288.353Z" fill="#D8E0FF"/>
<path d="M425.866 185.518C433.12 185.518 439.001 179.641 439.001 172.391C439.001 165.141 433.12 159.264 425.866 159.264C418.611 159.264 412.73 165.141 412.73 172.391C412.73 179.641 418.611 185.518 425.866 185.518Z" fill="#FF9811"/>
<path d="M449.571 162.319C443.204 161.459 435.936 164.898 434.286 171.102C433.871 169.999 433.115 169.057 432.128 168.411C431.141 167.765 429.974 167.45 428.796 167.51C427.618 167.571 426.49 168.004 425.574 168.747C424.658 169.49 424.003 170.505 423.702 171.645L424.431 172.167C438.074 175.115 452.196 175.051 465.811 171.98C461.383 167.329 455.937 163.179 449.571 162.319Z" fill="#F0F0F0"/>
<path d="M422.269 179.822C415.903 178.962 408.635 182.401 406.985 188.605C406.569 187.502 405.813 186.56 404.826 185.914C403.839 185.268 402.672 184.953 401.494 185.013C400.316 185.074 399.188 185.507 398.272 186.25C397.357 186.993 396.701 188.008 396.4 189.148L397.129 189.67C410.772 192.618 424.894 192.554 438.509 189.483C434.081 184.832 428.635 180.682 422.269 179.822Z" fill="#F0F0F0"/>
<path d="M448.388 279.887C448.075 279.77 447.769 279.637 447.47 279.487C447.455 279.511 447.441 279.534 447.426 279.557L448.388 279.887Z" fill="#E6E6E6"/>
<path d="M468.343 298.634C468.327 298.687 468.295 298.733 468.251 298.765C468.207 298.798 468.153 298.815 468.098 298.814C468.072 298.814 468.046 298.81 468.021 298.801C445.109 291.563 421.537 286.607 397.649 284.007C397.395 283.978 397.137 283.95 396.882 283.922C396.593 283.891 396.308 283.862 396.022 283.832C395.522 283.78 395.023 283.729 394.525 283.677C394.463 283.672 394.402 283.664 394.34 283.659C393.116 283.536 391.899 283.42 390.688 283.312C370.475 281.489 350.146 281.348 329.91 282.889C328.318 283.013 326.756 283.144 325.223 283.283C324.635 283.335 324.051 283.389 323.474 283.445C322.995 283.489 322.52 283.535 322.049 283.582L321.967 283.59C321.444 283.644 320.926 283.695 320.411 283.749C318.307 283.968 316.262 284.2 314.276 284.444C275.69 289.172 251.593 298.701 251.353 298.796C251.29 298.821 251.219 298.82 251.156 298.793C251.094 298.766 251.045 298.715 251.019 298.652C250.994 298.588 250.995 298.518 251.022 298.455C251.049 298.393 251.099 298.343 251.163 298.318C251.402 298.222 275.549 288.673 314.194 283.937C316.128 283.7 318.066 283.478 320.009 283.27C320.643 283.203 321.274 283.139 321.908 283.075C321.957 283.07 322.006 283.067 322.052 283.062C322.588 283.008 323.121 282.956 323.656 282.905C324.414 282.833 325.168 282.763 325.926 282.696C327.672 282.539 329.421 282.396 331.172 282.267C348.456 280.987 365.81 280.944 383.1 282.138C385.364 282.295 387.627 282.473 389.889 282.673C391.27 282.792 392.65 282.923 394.031 283.059C394.129 283.07 394.226 283.08 394.327 283.09C394.886 283.144 395.442 283.203 396.001 283.263C396.413 283.304 396.823 283.348 397.235 283.394C397.523 283.425 397.812 283.456 398.098 283.489C421.885 286.131 445.357 291.096 468.176 298.312C468.208 298.322 468.238 298.338 468.264 298.36C468.29 298.381 468.312 298.408 468.327 298.438C468.343 298.468 468.352 298.501 468.355 298.535C468.358 298.568 468.354 298.602 468.343 298.634Z" fill="#CCCCCC"/>
<path d="M468.098 334.077C468.072 334.077 468.046 334.073 468.021 334.065C414.251 317.034 357.255 312.735 301.536 321.508C296.316 322.345 291.082 323.311 285.979 324.381C284.676 324.654 283.324 324.946 281.961 325.25C280.334 325.612 278.728 325.985 277.188 326.358C276.523 326.516 275.871 326.674 275.232 326.834C274.264 327.073 273.282 327.322 272.229 327.595C271.052 327.899 269.857 328.217 268.675 328.541L268.662 328.544L268.662 328.545C267.327 328.909 265.999 329.284 264.715 329.658C264.02 329.858 263.349 330.056 262.707 330.252C262.635 330.271 262.571 330.29 262.507 330.31L262.369 330.352C262.289 330.376 262.21 330.4 262.131 330.423L262.126 330.424L262.126 330.425L261.917 330.49C261.667 330.565 261.424 330.639 261.185 330.712C254.863 332.66 251.388 334.045 251.353 334.059C251.322 334.071 251.288 334.077 251.255 334.077C251.221 334.077 251.187 334.07 251.156 334.056C251.125 334.043 251.097 334.024 251.073 334C251.05 333.975 251.031 333.947 251.018 333.915C251.006 333.884 251 333.851 251 333.817C251 333.783 251.007 333.75 251.021 333.719C251.034 333.687 251.053 333.659 251.078 333.636C251.102 333.612 251.13 333.593 251.162 333.581C251.196 333.567 254.689 332.175 261.034 330.22C261.274 330.146 261.517 330.073 261.767 329.997L261.962 329.937L261.982 329.93C262.06 329.908 262.139 329.884 262.219 329.86L262.357 329.818C262.426 329.797 262.494 329.776 262.563 329.757C263.202 329.563 263.875 329.365 264.572 329.163C265.856 328.789 267.185 328.414 268.521 328.049L268.534 328.046V328.045C269.72 327.72 270.92 327.401 272.1 327.097C273.154 326.823 274.139 326.574 275.108 326.335C275.75 326.175 276.403 326.016 277.068 325.858C278.61 325.484 280.219 325.111 281.849 324.748C283.214 324.443 284.568 324.15 285.873 323.877C290.984 322.806 296.226 321.838 301.455 321C357.252 312.214 414.33 316.519 468.176 333.575C468.234 333.593 468.285 333.632 468.317 333.684C468.349 333.736 468.362 333.798 468.353 333.859C468.343 333.92 468.313 333.975 468.266 334.015C468.219 334.055 468.16 334.077 468.098 334.077H468.098Z" fill="#CCCCCC"/>
<path d="M300.738 303.08C303.896 301.792 318.861 300.089 322.261 300.341C322.361 300.343 322.458 300.306 322.532 300.238C322.605 300.17 322.649 300.076 322.655 299.976C322.66 299.876 322.627 299.778 322.561 299.702C322.496 299.626 322.404 299.578 322.304 299.569C318.761 299.307 303.668 301.055 300.38 302.396C299.92 302.583 300.28 303.267 300.738 303.08L300.738 303.08Z" fill="#2C4CC9"/>
<path d="M257.423 312.945C260.613 311.725 264.043 311.259 267.444 311.583C267.544 311.587 267.642 311.552 267.717 311.485C267.792 311.419 267.838 311.326 267.845 311.226C267.853 311.126 267.822 311.027 267.758 310.95C267.694 310.873 267.602 310.823 267.503 310.812C263.963 310.482 260.395 310.976 257.078 312.254C256.615 312.432 256.961 313.123 257.423 312.945Z" fill="#2C4CC9"/>
<path d="M382.457 299.629C385.823 299.042 389.279 299.242 392.555 300.211C392.652 300.234 392.755 300.219 392.841 300.168C392.927 300.117 392.99 300.035 393.017 299.938C393.044 299.841 393.032 299.738 392.984 299.65C392.936 299.562 392.856 299.497 392.76 299.467C389.349 298.465 385.753 298.265 382.252 298.884C381.763 298.97 381.97 299.714 382.457 299.629Z" fill="#2C4CC9"/>
<path d="M458.061 259.647L461.874 256.631C461.532 254.102 460.577 251.695 459.093 249.618C458.82 254.147 454.072 257.03 452.333 261.221C451.801 262.532 451.571 263.946 451.66 265.358C451.749 266.771 452.154 268.145 452.847 269.379L453.108 272.815C455.169 271.826 456.99 270.403 458.447 268.643C459.904 266.883 460.962 264.828 461.548 262.62C461.864 261.378 462.022 260.101 462.02 258.82C460.101 259.335 458.061 259.647 458.061 259.647Z" fill="#2C4CC9"/>
<path d="M449.062 289.983C447.541 290.331 446.213 290.534 446.213 290.534L448.566 288.673C447.972 287.165 447.807 285.523 448.089 283.927C446.303 285.356 444.854 287.162 443.845 289.214C442.836 291.267 442.292 293.516 442.251 295.802C442.21 298.089 442.674 300.356 443.609 302.443C444.544 304.53 445.928 306.386 447.662 307.879L448.831 304.636C449.828 303.632 450.586 302.416 451.049 301.079C451.512 299.741 451.668 298.317 451.505 296.912C451.209 294.515 449.992 292.248 449.062 289.983Z" fill="#2C4CC9"/>
<path d="M447.452 252.249C446.651 252.953 445.893 253.704 445.183 254.499L446.398 251.697C445.942 251.522 445.453 251.448 444.965 251.48C444.478 251.512 444.003 251.65 443.575 251.884C443.085 252.199 442.675 252.623 442.378 253.124C442.08 253.624 441.903 254.186 441.86 254.767C441.786 255.932 442.036 257.095 442.584 258.126C443.528 260.019 445.062 261.554 446.955 262.5C447.945 261.109 448.679 259.553 449.123 257.905C449.344 257.066 449.376 256.189 449.219 255.335C449.062 254.482 448.719 253.674 448.214 252.968C447.993 252.695 447.737 252.453 447.452 252.249Z" fill="#2C4CC9"/>
<path d="M466.303 283.07L469.837 280.274C470.129 278.689 470.17 277.068 469.958 275.471C467.584 279.337 462.036 279.647 458.528 282.525C457.44 283.432 456.571 284.571 455.984 285.859C455.397 287.146 455.107 288.549 455.137 289.964L453.748 293.119C456.032 293.216 458.309 292.817 460.424 291.95C462.539 291.083 464.44 289.768 465.997 288.096C467.47 286.478 468.585 284.568 469.27 282.491C467.701 282.856 466.303 283.07 466.303 283.07Z" fill="#2C4CC9"/>
<path d="M446.971 307.241C446.296 308.111 445.58 308.948 444.825 309.753C445.106 309.838 445.379 309.92 445.647 310.003C446.309 309.285 446.94 308.541 447.54 307.771C447.64 307.642 447.741 307.511 447.841 307.377C448.935 305.938 449.922 304.421 450.793 302.837C452.474 299.791 453.722 296.526 454.502 293.136C454.517 293.077 454.53 293.02 454.543 292.961C454.751 292.029 454.924 291.087 455.058 290.142C455.086 289.952 455.112 289.759 455.138 289.568C455.202 289.046 455.256 288.523 455.3 288.001C455.459 286.096 455.464 284.182 455.316 282.276C455.062 279.018 454.381 275.806 453.291 272.725C453.214 272.506 453.137 272.287 453.052 272.071C453.005 271.942 452.956 271.813 452.907 271.685C451.595 268.295 449.795 265.114 447.563 262.244C447.48 262.138 447.398 262.035 447.316 261.932C447.12 261.688 446.922 261.446 446.721 261.206C446.688 261.165 446.645 261.131 446.597 261.109C446.548 261.087 446.495 261.077 446.442 261.079C446.389 261.082 446.337 261.097 446.291 261.124C446.245 261.15 446.206 261.187 446.177 261.232C446.113 261.303 446.078 261.395 446.077 261.491C446.076 261.587 446.11 261.679 446.172 261.752C446.334 261.945 446.497 262.141 446.651 262.339C446.844 262.573 447.03 262.812 447.21 263.054C451.189 268.298 453.682 274.515 454.427 281.054C454.874 285.083 454.631 289.159 453.708 293.107H453.706C453.155 295.486 452.365 297.803 451.349 300.024C451.146 300.466 450.934 300.905 450.713 301.339C450.141 302.469 449.51 303.568 448.822 304.631C448.245 305.529 447.628 306.399 446.971 307.241Z" fill="#3F3D56"/>
<path d="M440.152 310.954C443.517 310.368 446.973 310.567 450.249 311.536C450.346 311.56 450.449 311.544 450.535 311.493C450.622 311.442 450.685 311.36 450.711 311.263C450.738 311.167 450.726 311.064 450.678 310.976C450.63 310.888 450.55 310.822 450.454 310.792C447.044 309.79 443.447 309.59 439.946 310.209C439.458 310.295 439.665 311.04 440.152 310.954Z" fill="#2C4CC9"/>
<path d="M168.556 371.518V414.458C168.56 417.199 169.652 419.826 171.591 421.763C173.53 423.701 176.159 424.792 178.901 424.796H551.186C553.928 424.792 556.557 423.701 558.496 421.763C560.435 419.826 561.526 417.199 561.53 414.458V371.518H168.556Z" fill="#F0F0F0"/>
<path d="M130.597 175.092V157.685C130.603 154.619 130.004 151.582 128.835 148.748C127.665 145.913 125.948 143.337 123.782 141.166C121.615 138.995 119.042 137.273 116.209 136.097C113.376 134.921 110.338 134.314 107.27 134.313C104.202 134.311 101.164 134.913 98.3294 136.085C95.4947 137.258 92.919 138.977 90.7498 141.145C88.5805 143.313 86.8602 145.887 85.6872 148.72C84.5142 151.553 83.9115 154.589 83.9137 157.655V157.685C79.7997 166.252 82.3734 170.325 83.9137 175.092C83.9151 175.923 84.2457 176.718 84.8331 177.306C85.4206 177.893 86.2169 178.223 87.0477 178.224H127.461C128.292 178.223 129.089 177.893 129.677 177.306C130.264 176.719 130.595 175.923 130.597 175.092Z" fill="#3F3D56"/>
<path d="M102.933 245.652L101.852 250.798L100.934 269.782L137.851 264.786L140.685 242.805L136.767 236.371L102.933 245.652Z" fill="#FFD5D5"/>
<path d="M114.908 177.093C124.558 177.093 132.38 169.275 132.38 159.632C132.38 149.989 124.558 142.172 114.908 142.172C105.259 142.172 97.4363 149.989 97.4363 159.632C97.4363 169.275 105.259 177.093 114.908 177.093Z" fill="#FFD5D5"/>
<path d="M88.5856 221.995L83.7814 209.52C83.7789 204.298 85.5473 199.229 88.7981 195.14C92.049 191.052 96.5903 188.184 101.681 187.006L101.747 186.991L105.202 182.339L119.239 183.742L121.811 188.997L131.982 195.049L143.55 208.585C145.249 209.716 146.696 211.185 147.803 212.899C148.91 214.613 149.652 216.536 149.983 218.549C151.313 227.035 145.367 235.527 144.66 236.501L142.837 246.757L100.701 252.791L100.379 252.832L88.5856 221.995Z" fill="#2C4CC9"/>
<path d="M96.6231 164.21C96.7814 164.185 96.9398 164.152 97.0982 164.127C99.8235 163.644 102.549 163.169 105.266 162.677L105.516 156.522L108.808 162.036C116.317 164.526 123.343 163.119 129.953 160.012C132.133 158.978 134.248 157.813 136.287 156.522C135.732 153.118 134.422 149.881 132.454 147.048C130.485 144.215 127.908 141.857 124.91 140.148C124.66 140.006 124.419 139.881 124.168 139.756C124.167 139.756 124.166 139.756 124.165 139.756C124.164 139.755 124.163 139.755 124.163 139.754C124.162 139.753 124.161 139.752 124.161 139.751C124.16 139.75 124.16 139.749 124.16 139.748C123.735 139.548 123.302 139.357 122.868 139.182C119.475 137.857 115.776 137.521 112.199 138.214C108.623 138.907 105.317 140.6 102.666 143.096C97.3316 148.185 94.9312 156.589 96.6231 164.21Z" fill="#3F3D56"/>
<path d="M186.935 484.308L197.166 480.186L186.127 438.787L171.026 444.87L186.935 484.308Z" fill="#FFD5D5"/>
<path d="M182.363 480.286L198.148 472.807L200.941 479.732L220.599 484.15C221.57 484.369 222.446 484.891 223.098 485.642C223.751 486.393 224.146 487.332 224.227 488.323C224.307 489.315 224.069 490.306 223.546 491.152C223.023 491.998 222.243 492.655 221.32 493.026L202.064 500.783L195.982 495.27L197.449 502.642L190.189 505.566L182.363 480.286Z" fill="#3F3D56"/>
<path d="M84.8506 483.219L95.8822 483.218L101.13 440.697L84.8489 440.698L84.8506 483.219Z" fill="#FFD5D5"/>
<path d="M78.8517 395.967L78.8513 395.853L82.995 388.717L78.7638 379.429L78.4635 322.976C76.797 282.181 100.48 262.57 100.667 262.377L101.18 261.844L139.162 260.915C139.162 260.915 204.633 452.986 192.633 454.871L175.435 464.324L145.619 383.589L143.817 378.97C140.587 378.375 132.191 345.814 132.191 345.814C130.784 344.144 130.856 339.604 130.856 339.604L119.859 328.066L109.723 381.25L112.229 397.114L110.155 402.568L101.879 465.79L101.785 466.516H79.2274L78.8517 395.967Z" fill="#3F3D56"/>
<path d="M81.1151 477.781L98.5534 476.741V484.208L115.133 495.65C115.951 496.215 116.568 497.027 116.893 497.967C117.217 498.907 117.232 499.926 116.936 500.876C116.64 501.825 116.048 502.655 115.247 503.245C114.445 503.834 113.476 504.152 112.481 504.152H91.7197L88.1412 496.766L86.744 504.152H78.9163L81.1151 477.781Z" fill="#3F3D56"/>
<path d="M178.028 273.016C176.919 273.137 175.796 273.015 174.74 272.656C173.683 272.298 172.718 271.712 171.913 270.941C171.107 270.169 170.481 269.23 170.077 268.191C169.674 267.151 169.504 266.036 169.579 264.923L134.681 256.535L109.179 229.419L123.023 220.268L141.055 242.631L178.258 257.787C180.12 258.037 181.825 258.96 183.052 260.382C184.278 261.804 184.94 263.627 184.911 265.504C184.883 267.381 184.166 269.182 182.898 270.567C181.629 271.951 179.896 272.823 178.028 273.016V273.016Z" fill="#FFD5D5"/>
<path d="M91.2948 202.111C91.2948 202.111 87.7883 204.1 93.3929 210.543C97.8798 215.701 120.792 246.006 128.696 251.264C128.23 252.51 128.193 253.876 128.59 255.145C128.986 256.415 129.794 257.516 130.886 258.277L143.589 243.184C142.989 238.756 140.008 238.91 138.323 239.406L132.325 227.772L113.972 199.794L93.804 200.629L91.2948 202.111Z" fill="#2C4CC9"/>
<path d="M560.893 440.724C582.616 440.724 600.226 423.126 600.226 401.418C600.226 379.71 582.616 362.112 560.893 362.112C539.171 362.112 521.561 379.71 521.561 401.418C521.561 423.126 539.171 440.724 560.893 440.724Z" fill="#2C4CC9"/>
<path d="M555.528 421.875C554.848 421.875 554.179 421.717 553.571 421.414C552.964 421.11 552.435 420.669 552.028 420.126L541.297 405.828C540.953 405.369 540.702 404.846 540.559 404.29C540.417 403.734 540.385 403.155 540.466 402.587C540.548 402.018 540.74 401.471 541.033 400.977C541.326 400.483 541.713 400.052 542.173 399.707C542.632 399.363 543.155 399.112 543.712 398.97C544.268 398.827 544.848 398.796 545.416 398.877C545.985 398.958 546.532 399.15 547.027 399.443C547.521 399.736 547.953 400.122 548.298 400.582L555.318 409.935L573.348 382.908C573.667 382.43 574.077 382.019 574.554 381.7C575.032 381.38 575.567 381.158 576.131 381.045C576.694 380.932 577.275 380.932 577.838 381.043C578.402 381.154 578.938 381.376 579.416 381.694C579.895 382.013 580.305 382.422 580.625 382.9C580.945 383.377 581.167 383.912 581.28 384.475C581.392 385.038 581.393 385.618 581.281 386.182C581.17 386.745 580.948 387.281 580.629 387.758L559.168 419.928C558.78 420.51 558.258 420.99 557.646 421.329C557.033 421.667 556.349 421.854 555.649 421.874C555.609 421.875 555.568 421.875 555.528 421.875Z" fill="white"/>
<path d="M174.043 490.998L167.413 480.351L166.089 486.435C165.857 487.501 165.625 488.584 165.41 489.658C163.527 488.051 161.523 486.564 159.563 485.138C153.543 480.772 147.527 476.401 141.513 472.024L143.396 482.938C144.557 489.658 145.77 496.515 148.642 502.659C148.96 503.355 149.304 504.043 149.674 504.713H177.655C177.88 504.091 178.036 503.445 178.119 502.788C178.126 502.746 178.129 502.702 178.128 502.659C178.566 498.492 176.262 494.564 174.043 490.998Z" fill="#F0F0F0"/>
<path d="M238.141 505.736L1.02391 506C0.889202 506 0.755747 505.974 0.631183 505.923C0.506619 505.872 0.393404 505.796 0.298014 505.701C0.202624 505.606 0.126938 505.493 0.0752978 505.369C0.0236577 505.245 -0.00292969 505.111 -0.00292969 504.977C-0.00292969 504.842 0.0236577 504.709 0.0752978 504.584C0.126938 504.46 0.202624 504.347 0.298014 504.252C0.393404 504.157 0.506619 504.082 0.631183 504.031C0.755747 503.979 0.889202 503.953 1.02391 503.954L238.141 503.689C238.412 503.69 238.672 503.798 238.863 503.99C239.055 504.182 239.162 504.442 239.162 504.713C239.162 504.983 239.055 505.243 238.863 505.435C238.672 505.627 238.412 505.735 238.141 505.736Z" fill="#CACACA"/>
</g>
<defs>
<clipPath id="clip0_718_7927">
<rect width="639" height="506" fill="white"/>
</clipPath>
</defs>
</svg>
